<svg id="Layer_1" data-name="Layer 1" xmlns="http://www.w3.org/2000/svg" viewBox="0 0 530.87 530.87"><defs><style>.cls-1{fill:#bd9400;}</style></defs><path class="cls-1" d="M598.64,262.64H567.28c-8.4-106.4-93.52-191-199.36-199.36V31.36a17.36,17.36,0,0,0-34.72,0V62.72c-106.4,8.4-191,93.52-199.36,199.36H101.36a17.36,17.36,0,1,0,0,34.72h31.36c8.4,106.4,93.52,191,199.36,199.36v31.35a17.36,17.36,0,0,0,34.72,0V496.16c106.4-8.4,191-93.52,199.36-199.36h31.36a17.45,17.45,0,0,0,17.35-17.36c0-9.52-6.71-16.8-16.23-16.8Zm-66.64,0H490c-7.84-64.4-58.8-114.8-123.2-123.2v-42C454.72,106.4,523.6,175.28,532,262.64ZM350,373a93,93,0,1,1,93-93A93.09,93.09,0,0,1,350,373ZM332.64,98v42c-64.4,7.84-114.8,58.8-123.2,123.2h-42c9-87.92,77.84-156.8,165.2-165.2ZM168,297.36h42c7.84,64.4,58.8,114.8,123.2,123.2v42C245.28,453.6,176.4,384.72,168,297.36ZM367.36,462V420c64.4-7.84,114.8-58.8,123.2-123.2h42c-9,87.92-77.84,156.8-165.2,165.2Z" transform="translate(-84 -14)"/><path class="cls-1" d="M383.6,280A33.6,33.6,0,1,1,350,246.4,33.6,33.6,0,0,1,383.6,280" transform="translate(-84 -14)"/></svg>