<?xml version="1.0" encoding="utf-8"?>
<!-- Generator: Adobe Illustrator 24.1.3, SVG Export Plug-In . SVG Version: 6.00 Build 0)  -->
<svg version="1.1" id="Layer_1" xmlns="http://www.w3.org/2000/svg" xmlns:xlink="http://www.w3.org/1999/xlink" x="0px" y="0px"
	 viewBox="0 0 1321.2 1321.2" style="enable-background:new 0 0 1321.2 1321.2;" xml:space="preserve">
<style type="text/css">
	.st0{fill:none;}
	.st1{opacity:0.2;fill:#1C1C1C;}
	.st2{fill:#BD9400;}
	.st3{fill:#A7A9AC;}
	.st4{opacity:0.5;}
	.st5{fill:#939598;}
	.st6{opacity:0.5;fill:url(#SVGID_1_);}
	.st7{opacity:0.7;fill:#939598;}
	.st8{opacity:0.7;fill:#A7A9AC;}
</style>
<rect x="0" y="0" class="st0" width="1321.2" height="1321.2"/>
<path class="st1" d="M973.17,1105.28c0,10.4-146.88,18.84-328.06,18.84c-181.19,0-328.07-8.43-328.07-18.84
	c0-10.4,146.88-18.84,328.07-18.84C826.29,1086.44,973.17,1094.88,973.17,1105.28z"/>
<g>
	<path class="st2" d="M644.75,200.24c-163.45,0-295.95,132.5-295.95,295.95c0,271.29,295.95,574.28,295.95,574.28
		s295.95-285.38,295.95-574.28C940.69,332.74,808.19,200.24,644.75,200.24z M644.75,637.12c-81.72,0-147.97-66.25-147.97-147.97
		s66.25-147.97,147.97-147.97s147.97,66.25,147.97,147.97S726.47,637.12,644.75,637.12z"/>
	<g>
		<path class="st3" d="M644.75,190.24c-1.82,0-3.63,0.04-5.44,0.07c160.94,2.9,290.51,134.25,290.51,295.88
			c0,265.4-249.72,527.79-290.36,568.74c3.42,3.63,5.29,5.55,5.29,5.55s295.95-285.38,295.95-574.28
			C940.69,322.74,808.19,190.24,644.75,190.24z"/>
	</g>
	<g class="st4">
		<path class="st5" d="M359.76,495.58c0-163.45,132.5-295.95,295.95-295.95c70.92,0,136,24.95,186.97,66.55
			c-52.43-47.21-121.82-75.95-197.93-75.95c-163.45,0-295.95,132.5-295.95,295.95c0,271.29,295.95,574.28,295.95,574.28
			s0.4-0.38,1.09-1.07C594.44,1003.88,359.76,737.16,359.76,495.58z"/>
	</g>
	<path class="st2" d="M912.91,360.87c-47.19-100.8-149.51-170.63-268.16-170.63c-163.45,0-295.95,132.5-295.95,295.95
		c0,87.49,30.8,178.26,72.5,261.12c17.24,2.04,34.78,3.12,52.57,3.12C700.27,750.43,886.89,580.27,912.91,360.87z M644.75,627.12
		c-81.72,0-147.97-66.25-147.97-147.97s66.25-147.97,147.97-147.97s147.97,66.25,147.97,147.97S726.47,627.12,644.75,627.12z"/>
</g>
<linearGradient id="SVGID_1_" gradientUnits="userSpaceOnUse" x1="276.1592" y1="320.2523" x2="732.1362" y2="282.7543">
	<stop  offset="0" style="stop-color:#EF4136"/>
	<stop  offset="0.8011" style="stop-color:#000000"/>
</linearGradient>
<path class="st6" d="M669.07,233.15c57.25,4.6,109.63,23.17,153.24,51.63C777.98,238.21,717,207.15,647.86,201.6
	c-133.62-10.73-252.35,77.43-284.22,203.15C409.05,295.11,531.62,222.12,669.07,233.15z"/>
<g>
	<path class="st7" d="M496.77,479.14c0-81.72,66.25-147.97,147.97-147.97c44.33,0,84.09,19.5,111.21,50.37
		c-26.94-36.58-70.3-60.31-119.21-60.31c-81.72,0-147.97,66.25-147.97,147.97c0,37.4,13.88,71.55,36.76,97.6
		C507.46,542.27,496.77,511.95,496.77,479.14z"/>
	<path class="st8" d="M741.96,367.59c31.1,27.13,50.76,67.04,50.76,111.55c0,81.72-66.25,147.97-147.97,147.97
		c-33.51,0-64.41-11.14-89.21-29.92c26,22.68,60,36.42,97.21,36.42c81.72,0,147.97-66.25,147.97-147.97
		C800.72,437.43,777.65,394.6,741.96,367.59z"/>
</g>
</svg>
