<svg id="Layer_1" data-name="Layer 1" xmlns="http://www.w3.org/2000/svg" viewBox="0 0 492.76 403.42"><defs><style>.cls-1{fill:#bd9400;}</style></defs><path class="cls-1" d="M363.48,78.23a11.14,11.14,0,0,0-10.15,7.52L335.48,135.8,286,154a11.35,11.35,0,0,0,0,21.18l49.53,18,17.85,50.23a11,11,0,0,0,20.82,0L392,193.2l49.53-18a11.34,11.34,0,0,0,0-21.18L392,135.8,374.15,85.75A11.1,11.1,0,0,0,363.48,78.23Zm.35,44.62,9.1,25.55a11.21,11.21,0,0,0,6.65,7l25.2,9.1-25.2,9.27a11.19,11.19,0,0,0-6.65,6.83l-9.1,25.73-9.1-25.73a11.22,11.22,0,0,0-6.83-6.83l-25.2-9.27,25.2-9.1a11.2,11.2,0,0,0,6.83-7ZM511,147.52a11.16,11.16,0,0,0-10.15,7.53L483,205.27l-49.35,18a11.34,11.34,0,0,0,0,21.18L483,262.68l17.85,50.05a11.16,11.16,0,0,0,21,0l17.85-50.05,49.35-18.2a11.34,11.34,0,0,0,0-21.18l-49.35-18-17.85-50.22A11.13,11.13,0,0,0,511,147.52Zm.35,44.63,9.1,25.73a11.2,11.2,0,0,0,6.65,6.82L552.48,234l-25.37,9.1a11.16,11.16,0,0,0-6.65,7l-9.1,25.55-9.1-25.55a11.22,11.22,0,0,0-6.83-7l-25.2-9.1,25.2-9.28a11.18,11.18,0,0,0,6.83-6.82Zm-321.3,92a11.54,11.54,0,0,0-1.75.35l-76.48,20.83c-.29.1-.58.22-.87.35a11.25,11.25,0,0,0-7,13.47l40.77,154.18a11.16,11.16,0,0,0,13.65,7.88l76.3-20.83a11.18,11.18,0,0,0,6.79-5.26,11.33,11.33,0,0,0,1.09-8.56L238,429.45c42.1.27,73.23,6.89,128.45,18.56a11.3,11.3,0,0,0,7-.7l152.43-69.83A11.2,11.2,0,0,0,532,364.36c-4.5-16.51-16.71-26.65-29.05-29.58s-24.32-.55-33.6,1.93c-32.23,8.59-92.77,25.27-96.95,26.42L351.24,356h12.42c18,0,34.3-14.07,34.3-32.9a34.57,34.57,0,0,0-34.3-34.48H265a11.11,11.11,0,0,0-4.37.88l-29.75,12.77a11.21,11.21,0,0,0,8.75,20.65L267.24,311h96.42a11.78,11.78,0,0,1,11.9,12.08c0,6.86-4.28,10.5-11.9,10.5H298.21a11.2,11.2,0,0,0-11.2,11.2v5.07a11.2,11.2,0,0,0,7.53,10.5l73.85,25a11.17,11.17,0,0,0,6.65.17s67-18.48,100.1-27.3c7.54-2,16.45-3,22.57-1.58a14.91,14.91,0,0,1,8.57,5.25L367.33,425.43c-54.94-11.61-89.07-18.68-135.27-18.37L202,292.61a11.17,11.17,0,0,0-11.9-8.41Zm-7,25,35,132.47-54.6,14.87-35-132.47Z" transform="translate(-103.58 -78.23)"/></svg>