<?xml version="1.0" encoding="utf-8"?>
<!-- Generator: Adobe Illustrator 24.1.3, SVG Export Plug-In . SVG Version: 6.00 Build 0)  -->
<svg version="1.1" id="Layer_1" xmlns="http://www.w3.org/2000/svg" xmlns:xlink="http://www.w3.org/1999/xlink" x="0px" y="0px"
	 viewBox="0 0 700 700" style="enable-background:new 0 0 700 700;" xml:space="preserve">
<style type="text/css">
	.st0{fill:#BD9400;}
</style>
<g>
	<path class="st0" d="M350,428.2c-109.6,0-213-53.5-276.5-143.2l-3.5-5l3.5-5C137,185.3,240.4,131.8,350,131.8S563,185.3,626.5,275
		l3.5,5l-3.5,5C563,374.7,459.6,428.2,350,428.2L350,428.2z M91.3,280C151.8,362.1,248,410.9,350,410.9S548.2,362.1,608.7,280
		C548.2,197.9,452,149.1,350,149.1S151.8,197.9,91.3,280L91.3,280z"/>
	<path class="st0" d="M350,428.2c-81.8,0-148.3-66.5-148.3-148.2S268.3,131.8,350,131.8c81.7,0,148.2,66.5,148.2,148.2
		S431.7,428.2,350,428.2L350,428.2z M350,149.1c-72.2,0-130.9,58.7-130.9,130.9S277.8,410.9,350,410.9
		c72.2,0,130.9-58.7,130.9-130.9C480.9,207.8,422.2,149.1,350,149.1z"/>
	<path class="st0" d="M350,336c-30.9,0-56.1-25.1-56.1-56c0-30.9,25.1-56.1,56.1-56.1s56.1,25.1,56.1,56.1
		C406.1,310.9,380.9,336,350,336z M350,241.3c-21.4,0-38.7,17.4-38.7,38.7s17.4,38.7,38.7,38.7s38.7-17.4,38.7-38.7
		C388.7,258.6,371.4,241.3,350,241.3L350,241.3z"/>
	<path class="st0" d="M326,197.4l-4.8-16.6c9.4-2.7,19.1-4.1,28.8-4.1V194C341.9,194,333.8,195.1,326,197.4L326,197.4z"/>
	<path class="st0" d="M264,280h-17.3c0-38.4,21.1-73.4,55.2-91.4l8.1,15.3C281.6,218.9,264,248,264,280L264,280z"/>
</g>
</svg>
